# xmcd CD database file
#
# Track frame offsets:
#	150
#	19670
#	39775
#	64945
#	88690
#	109060
#
# Disc length: 1714 seconds
#
# Revision: 2
# Processed by: cddbd v1.5.2PL0 Copyright (c) Steve Scherf et al.
# Submitted via: CDex 1.70beta3
#
DISCID=4106b006
DTITLE=Acid Black Cherry - Mini Best Singles ＆ ヒストリーDVD -RENTAL ONLY-
DYEAR=1900
DGENRE=blues
TTITLE0=SPELL MAGIC
TTITLE1=Black Cherry
TTITLE2=冬の幻
TTITLE3=眠り姫
TTITLE4=ピストル
TTITLE5=シャングリラ
EXTD=
EXTT0=
EXTT1=
EXTT2=
EXTT3=
EXTT4=
EXTT5=
PLAYORDER=
